<?xml version="1.0" encoding="UTF-8"?>
<!DOCTYPE svg PUBLIC "-//W3C//DTD SVG 1.1//EN" "http://www.w3.org/Graphics/SVG/1.1/DTD/svg11.dtd">
<!-- Creator: CorelDRAW 2020 (64-Bit) -->
<svg xmlns="http://www.w3.org/2000/svg" xml:space="preserve" width="33.8666mm" height="10.1598mm" version="1.1" style="shape-rendering:geometricPrecision; text-rendering:geometricPrecision; image-rendering:optimizeQuality; fill-rule:evenodd; clip-rule:evenodd"
viewBox="0 0 3386.66 1015.98"
 xmlns:xlink="http://www.w3.org/1999/xlink"
 xmlns:xodm="http://www.corel.com/coreldraw/odm/2003">
 <defs>
  <style type="text/css">
   <![CDATA[
    .fil1 {fill:#E4381C}
    .fil0 {fill:white}
    .fil2 {fill:#E4381C;fill-rule:nonzero}
   ]]>
  </style>
 </defs>
 <g id="Capa_x0020_1">
  <metadata id="CorelCorpID_0Corel-Layer"/>
  <polygon class="fil0" points="3130.38,157.99 2914.97,157.99 2634.75,623.86 2381.32,623.86 2661.54,157.99 2446.28,157.99 2522.55,30.92 3206.66,30.92 "/>
  <polygon class="fil0" points="2087.58,623.86 1833.73,623.86 2025.38,306.26 1755.47,544.43 1772.66,306.26 1581.57,623.86 1328.14,623.86 1608.51,157.99 1823.77,157.99 1684.78,30.92 1938.21,30.92 1921.02,269.09 2190.37,30.92 2443.8,30.92 "/>
  <polygon class="fil0" points="1476.36,157.99 1184.06,157.99 1120.13,264.14 1371.01,264.14 1294.88,390.79 1043.85,390.79 903.69,623.86 650.26,623.86 930.63,157.99 1145.9,157.99 1006.9,30.92 1552.64,30.92 "/>
  <polygon class="fil1" points="742.64,34.81 875.74,156.53 668.42,156.53 "/>
  <polygon class="fil1" points="472.59,34.81 605.69,156.53 398.37,156.53 "/>
  <path class="fil2" d="M889.66 703.67l0 288.43 -65.63 0 -0.19 -194.72 -26.07 194.72 -45.94 0 -27.53 -190.34 -0.18 190.34 -65.64 0 0 -288.43 96.93 0c2.74,17.44 5.72,37.98 8.94,61.44l10.63 73.23 17.08 -134.67 97.6 0zm201.23 169.07c0,28.99 -0.67,49.47 -2.07,61.5 -1.34,12.1 -5.59,23.1 -12.76,33.06 -7.17,9.97 -16.9,17.63 -29.11,22.98 -12.22,5.34 -26.44,8.02 -42.67,8.02 -15.43,0 -29.23,-2.55 -41.5,-7.6 -12.28,-5.04 -22.19,-12.58 -29.6,-22.67 -7.48,-10.08 -11.91,-21.08 -13.37,-32.94 -1.4,-11.91 -2.13,-32.69 -2.13,-62.35l0 -49.35c0,-28.99 0.67,-49.47 2.07,-61.5 1.34,-12.09 5.59,-23.09 12.76,-33.06 7.17,-9.97 16.9,-17.62 29.11,-22.97 12.22,-5.35 26.44,-8.02 42.66,-8.02 15.44,0 29.24,2.55 41.51,7.59 12.28,5.05 22.18,12.58 29.6,22.67 7.47,10.09 11.91,21.09 13.37,32.94 1.4,11.91 2.13,32.7 2.13,62.35l0 49.35zm-75.12 -94.74c0,-13.37 -0.73,-21.94 -2.19,-25.71 -1.46,-3.71 -4.43,-5.59 -8.93,-5.59 -3.83,0 -6.75,1.52 -8.81,4.56 -2.01,2.97 -3.04,11.91 -3.04,26.74l0 134.61c0,16.71 0.67,27.04 2,30.93 1.34,3.95 4.44,5.9 9.3,5.9 4.99,0 8.21,-2.25 9.6,-6.75 1.4,-4.5 2.07,-15.25 2.07,-32.21l0 -132.48zm254.27 -74.33l0 57.61 -44.12 0 0 230.82 -75.12 0 0 -230.82 -44.48 0 0 -57.61 163.72 0zm188.16 169.07c0,28.99 -0.67,49.47 -2.07,61.5 -1.34,12.1 -5.59,23.1 -12.76,33.06 -7.17,9.97 -16.9,17.63 -29.11,22.98 -12.22,5.34 -26.44,8.02 -42.67,8.02 -15.43,0 -29.23,-2.55 -41.5,-7.6 -12.28,-5.04 -22.19,-12.58 -29.6,-22.67 -7.48,-10.08 -11.91,-21.08 -13.37,-32.94 -1.4,-11.91 -2.13,-32.69 -2.13,-62.35l0 -49.35c0,-28.99 0.67,-49.47 2.07,-61.5 1.34,-12.09 5.59,-23.09 12.76,-33.06 7.17,-9.97 16.9,-17.62 29.11,-22.97 12.22,-5.35 26.44,-8.02 42.66,-8.02 15.44,0 29.24,2.55 41.51,7.59 12.28,5.05 22.18,12.58 29.6,22.67 7.47,10.09 11.91,21.09 13.37,32.94 1.4,11.91 2.13,32.7 2.13,62.35l0 49.35zm-75.12 -94.74c0,-13.37 -0.73,-21.94 -2.19,-25.71 -1.46,-3.71 -4.43,-5.59 -8.93,-5.59 -3.83,0 -6.75,1.52 -8.81,4.56 -2.01,2.97 -3.04,11.91 -3.04,26.74l0 134.61c0,16.71 0.67,27.04 2,30.93 1.34,3.95 4.44,5.9 9.3,5.9 4.99,0 8.21,-2.25 9.6,-6.75 1.4,-4.5 2.07,-15.25 2.07,-32.21l0 -132.48zm103.31 -74.33l53.06 0c35.37,0 59.31,1.34 71.83,4.07 12.52,2.74 22.73,9.73 30.63,20.97 7.9,11.18 11.85,29.11 11.85,53.66 0,22.43 -2.8,37.5 -8.39,45.22 -5.53,7.71 -16.53,12.33 -32.94,13.85 14.83,3.71 24.86,8.63 29.97,14.83 5.1,6.14 8.26,11.85 9.48,17.02 1.27,5.16 1.88,19.38 1.88,42.66l0 76.15 -69.65 0 0 -95.96c0,-15.44 -1.21,-24.98 -3.64,-28.69 -2.37,-3.7 -8.69,-5.53 -18.96,-5.53l0 130.18 -75.12 0 0 -288.43zm75.12 49.23l0 64.17c8.38,0 14.22,-1.15 17.56,-3.46 3.34,-2.31 5.04,-9.85 5.04,-22.55l0 -15.86c0,-9.18 -1.64,-15.19 -4.86,-18.05 -3.22,-2.86 -9.17,-4.25 -17.74,-4.25zm296.27 76.57l-75.12 0 0 -50.08c0,-14.58 -0.79,-23.64 -2.37,-27.28 -1.58,-3.59 -5.1,-5.41 -10.51,-5.41 -6.08,0 -9.97,2.19 -11.61,6.56 -1.64,4.44 -2.49,13.92 -2.49,28.5l0 133.83c0,14.04 0.85,23.15 2.49,27.47 1.64,4.25 5.35,6.38 11.06,6.38 5.53,0 9.18,-2.13 10.88,-6.44 1.7,-4.26 2.55,-14.35 2.55,-30.21l0 -36.28 75.12 0 0 11.24c0,29.9 -2.13,51.11 -6.32,63.57 -4.2,12.52 -13.56,23.46 -27.96,32.88 -14.46,9.42 -32.21,14.1 -53.36,14.1 -21.94,0 -40.05,-3.95 -54.33,-11.91 -14.22,-7.96 -23.7,-18.96 -28.32,-33.06 -4.62,-14.1 -6.93,-35.25 -6.93,-63.51l0 -84.23c0,-20.79 0.73,-36.35 2.13,-46.74 1.46,-10.39 5.65,-20.42 12.76,-30.02 7.05,-9.6 16.84,-17.2 29.36,-22.73 12.51,-5.53 26.92,-8.26 43.21,-8.26 22.06,0 40.29,4.25 54.69,12.82 14.34,8.51 23.76,19.14 28.32,31.9 4.5,12.77 6.75,32.58 6.75,59.5l0 27.41zm186.57 -125.8l-54.69 184.02 0 104.41 -69.29 0 0 -104.41 -52.87 -184.02 68.86 0c10.63,56.46 16.77,94.38 18.29,113.83 4.32,-30.75 11.24,-68.68 20.91,-113.83l68.79 0zm187.86 125.8l-75.12 0 0 -50.08c0,-14.58 -0.79,-23.64 -2.37,-27.28 -1.58,-3.59 -5.1,-5.41 -10.51,-5.41 -6.08,0 -9.97,2.19 -11.61,6.56 -1.64,4.44 -2.49,13.92 -2.49,28.5l0 133.83c0,14.04 0.85,23.15 2.49,27.47 1.64,4.25 5.35,6.38 11.06,6.38 5.53,0 9.18,-2.13 10.88,-6.44 1.7,-4.26 2.55,-14.35 2.55,-30.21l0 -36.28 75.12 0 0 11.24c0,29.9 -2.13,51.11 -6.32,63.57 -4.2,12.52 -13.56,23.46 -27.96,32.88 -14.46,9.42 -32.21,14.1 -53.36,14.1 -21.94,0 -40.05,-3.95 -54.33,-11.91 -14.22,-7.96 -23.7,-18.96 -28.32,-33.06 -4.62,-14.1 -6.93,-35.25 -6.93,-63.51l0 -84.23c0,-20.79 0.73,-36.35 2.13,-46.74 1.46,-10.39 5.65,-20.42 12.76,-30.02 7.05,-9.6 16.84,-17.2 29.36,-22.73 12.51,-5.53 26.92,-8.26 43.21,-8.26 22.06,0 40.29,4.25 54.69,12.82 14.34,8.51 23.76,19.14 28.32,31.9 4.5,12.77 6.75,32.58 6.75,59.5l0 27.41zm101.98 -125.8l0 230.82 45.21 0 0 57.61 -120.33 0 0 -288.43 75.12 0zm63.56 0l125.07 0 0 57.61 -49.95 0 0 55.06 46.67 0 0 54.7 -46.67 0 0 63.45 55.06 0 0 57.61 -130.18 0 0 -288.43zm310.13 87.51l-69.65 0 0 -21.33c0,-9.96 -0.91,-16.35 -2.67,-19.08 -1.76,-2.74 -4.68,-4.07 -8.81,-4.07 -4.5,0 -7.9,1.82 -10.21,5.53 -2.31,3.64 -3.47,9.17 -3.47,16.65 0,9.6 1.34,16.83 3.95,21.7 2.55,4.8 9.6,10.69 21.21,17.62 33.25,19.87 54.21,36.22 62.84,48.92 8.69,12.7 13.01,33.18 13.01,61.38 0,20.54 -2.43,35.68 -7.23,45.46 -4.81,9.73 -14.04,17.87 -27.84,24.43 -13.73,6.63 -29.72,9.91 -48.01,9.91 -20.05,0 -37.13,-3.83 -51.35,-11.43 -14.16,-7.59 -23.4,-17.26 -27.84,-28.99 -4.37,-11.79 -6.56,-28.5 -6.56,-50.07l0 -18.9 69.65 0 0 35.06c0,10.82 0.97,17.75 2.91,20.85 1.95,3.1 5.41,4.62 10.39,4.62 4.99,0 8.7,-1.95 11.13,-5.9 2.43,-3.89 3.64,-9.72 3.64,-17.38 0,-16.95 -2.31,-28.08 -6.93,-33.24 -4.8,-5.23 -16.47,-13.98 -35.06,-26.26 -18.6,-12.33 -30.87,-21.33 -36.95,-26.92 -6.02,-5.59 -11.06,-13.31 -15.01,-23.15 -3.95,-9.85 -5.96,-22.43 -5.96,-37.74 0,-22.06 2.8,-38.23 8.45,-48.44 5.65,-10.21 14.71,-18.17 27.29,-23.94 12.58,-5.78 27.71,-8.63 45.52,-8.63 19.44,0 35.97,3.16 49.71,9.42 13.67,6.32 22.73,14.22 27.16,23.82 4.44,9.54 6.69,25.77 6.69,48.68l0 11.42z"/>
 </g>
</svg>
